<svg xmlns="http://www.w3.org/2000/svg" viewBox="0 0 140.96 31.41"><path d="M15.64,4.32A18,18,0,0,0,17.44.07l2,.47a35.15,35.15,0,0,1-1.7,3.78h7.14V6.05H0V4.32H7.68A18.4,18.4,0,0,0,5.88.71L7.58,0A19.15,19.15,0,0,1,9.72,4.32ZM3.54,22.61V31H1.9V9.35h9.69V29c0,1.94-.95,2.08-2,2.08H6.7l-.41-1.91,2.65.07c1,0,1-.27,1-1.15V22.61ZM10,11H3.54v4.05H10Zm0,5.65H3.54V21H10Zm6.7,8.77H15V9.35h1.7Zm6.49,2.86c0,1.63-.2,2.75-2.28,2.75H17l-.44-2,3.77.07c1.05,0,1.09-.41,1.09-1.57V8.4h1.73Z"/><path d="M39.75,1.63H62.63V30.39H39.75ZM50.32,3.4H41.51V14.69h8.81Zm0,13H41.51v12.2h8.81Zm10.54-1.73V3.4H52V14.69Zm0,13.93V16.42H52v12.2Z"/><path d="M77.49,29.71A19.31,19.31,0,0,0,85.07,25l1.39,1.12a23.3,23.3,0,0,1-7.75,5.2ZM102.34,23v1.63H77.59V23ZM89.11,0h1.67V2.58h11.28V4.22H90.78V6.53h8.43V20.67H80.65V6.53h8.46V4.22H77.76V2.58H89.11Zm8.37,8H82.35v2.62H97.48Zm0,4.05H82.35v2.72H97.48ZM82.35,16.18v3H97.48v-3Zm18.93,15.23a22.4,22.4,0,0,1-8-5.16L94.59,25a18.11,18.11,0,0,0,7.82,4.73Z"/><path d="M127.87,0h1.7V2.11H141V3.67H129.57V6.53h10V8H117.88V6.53h10V3.67H116.48V2.11h11.39Zm7,16c-.45,1.26-.45,1.33-1,2.52h7v1.56H116.48V18.6h7.11a16.85,16.85,0,0,0-.82-2.52h-3.46V10.17h18.83v5.91ZM118.8,22.44h19.81v8.09H118.8ZM137,24H120.5v5H137Zm-.48-12.31H121v3h15.5Zm-4.35,6.94a18.35,18.35,0,0,0,1-2.52h-8.67c.2.51.27.71.81,2.52Z"/></svg>