<svg xmlns="http://www.w3.org/2000/svg" viewBox="0 0 25 25"><path d="M7.19,21.69,3,19.37a.74.74,0,0,1,0-1.29l4.71-2.56" fill="none" stroke="#000" stroke-linecap="round" stroke-miterlimit="10" stroke-width="0.75"/><path d="M17.41,15.6l4.68,3A.74.74,0,0,1,22,19.89l-9.2,4.53a.74.74,0,0,1-.68,0l-1.86-1" fill="none" stroke="#000" stroke-linecap="round" stroke-miterlimit="10" stroke-width="0.75"/><path d="M7.44,18.82l3.64.86a5.93,5.93,0,0,0,2.84,0l3.64-.86a.69.69,0,0,0,.51-.87L13.35,1.15a.88.88,0,0,0-1.7,0L6.93,18A.69.69,0,0,0,7.44,18.82Z" fill="none" stroke="#000" stroke-miterlimit="10" stroke-width="0.75"/><path d="M10.26,6.15a3.37,3.37,0,0,0,2.24.64,3.27,3.27,0,0,0,2.25-.66" fill="none" stroke="#000" stroke-linecap="round" stroke-miterlimit="10" stroke-width="0.75"/><path d="M9.31,9.73a4.73,4.73,0,0,0,3.19.91,4.69,4.69,0,0,0,3.21-.93" fill="none" stroke="#000" stroke-linecap="round" stroke-miterlimit="10" stroke-width="0.75"/><path d="M8.18,13.87a6.48,6.48,0,0,0,4.31,1.23,6.31,6.31,0,0,0,4.35-1.27" fill="none" stroke="#000" stroke-linecap="round" stroke-miterlimit="10" stroke-width="0.75"/><path d="M7.13,21.81l-4.3-2.36a.74.74,0,0,1,0-1.3L7.6,15.56" fill="none" stroke="#000" stroke-linecap="round" stroke-miterlimit="10" stroke-width="0.75"/><path d="M17.47,15.64l4.74,3.05A.74.74,0,0,1,22.14,20l-9.32,4.59a.74.74,0,0,1-.68,0l-1.89-1" fill="none" stroke="#000" stroke-linecap="round" stroke-miterlimit="10" stroke-width="0.75"/><path d="M7.37,18.9l3.69.87a6.1,6.1,0,0,0,2.88,0l3.69-.87a.7.7,0,0,0,.51-.88L13.37,1a.9.9,0,0,0-1.74,0L6.86,18A.7.7,0,0,0,7.37,18.9Z" fill="none" stroke="#000" stroke-miterlimit="10" stroke-width="0.75"/><path d="M10.24,6.07a3.33,3.33,0,0,0,2.26.65,3.28,3.28,0,0,0,2.28-.67" fill="none" stroke="#000" stroke-linecap="round" stroke-miterlimit="10" stroke-width="0.75"/><path d="M9.27,9.7a4.79,4.79,0,0,0,3.23.92,4.73,4.73,0,0,0,3.25-.95" fill="none" stroke="#000" stroke-linecap="round" stroke-miterlimit="10" stroke-width="0.75"/><path d="M8.13,13.88a6.45,6.45,0,0,0,4.36,1.25,6.42,6.42,0,0,0,4.4-1.28" fill="none" stroke="#000" stroke-linecap="round" stroke-miterlimit="10" stroke-width="0.75"/></svg>