<svg xmlns="http://www.w3.org/2000/svg" width="24" height="24" viewBox="0 0 24 24"><path d="M12.66,2.12c3.14,0,3.51,0,4.76.07,3.19.15,4.68,1.66,4.83,4.83.05,1.24.06,1.62.06,4.76s0,3.52-.06,4.76c-.15,3.17-1.64,4.69-4.83,4.83-1.25.06-1.62.07-4.76.07s-3.52,0-4.77-.07c-3.2-.14-4.68-1.67-4.82-4.83C3,15.3,3,14.93,3,11.78S3,8.26,3.07,7C3.21,3.85,4.7,2.34,7.89,2.19,9.14,2.14,9.51,2.12,12.66,2.12Zm0-2.12C9.46,0,9.06,0,7.8.07,3.52.27,1.14,2.64,1,6.92.89,8.18.87,8.58.87,11.78s0,3.6.07,4.86c.2,4.28,2.57,6.66,6.86,6.85,1.26.06,1.66.07,4.86.07s3.6,0,4.85-.07c4.28-.19,6.66-2.57,6.86-6.85.05-1.26.07-1.66.07-4.86s0-3.6-.07-4.86C24.17,2.65,21.8.27,17.51.07,16.26,0,15.86,0,12.66,0Zm0,5.73a6,6,0,1,0,6.05,6A6,6,0,0,0,12.66,5.73Zm0,10a3.93,3.93,0,1,1,3.92-3.93A3.93,3.93,0,0,1,12.66,15.71ZM19,4.08a1.42,1.42,0,1,0,1.41,1.41A1.41,1.41,0,0,0,19,4.08Z"/></svg>