<svg xmlns="http://www.w3.org/2000/svg" viewBox="0 0 142.1 32.76"><path d="M21.42,8.53V28.21c0,1,0,1-.53,1l-4.47-.08.69,3.11h4.35c2.83,0,2.83-2.06,2.83-3.3l0-20.43Z"/><path d="M1.9,32.23H4.64V23.84h5.3v4.93c0,.24,0,.53,0,.56a1.56,1.56,0,0,1-.45,0l-3.34-.09.65,3h3.33c.83,0,2.55,0,2.55-2.63V9.48H1.9ZM10,17.88v3.25H4.64V17.88Zm0-5.65v2.95H4.64V12.23Z"/><rect x="15" y="9.48" width="2.8" height="17.17"/><path d="M20.5,1.42l.23-.59L17.6.1l-.14.5a17.08,17.08,0,0,1-1.59,3.85H10.66A20,20,0,0,0,8.59.38L8.34,0,5.61,1.14,6,1.69A18.15,18.15,0,0,1,7.42,4.45H0V7.28H26V4.45H19.19C19.67,3.46,20.11,2.44,20.5,1.42Z"/><path d="M39.75,31.62h24V1.76h-24Zm21.11-14V28.73l-7.76,0V17.65Zm0-13V14.8l-7.76,0V4.63Zm-10.54,13v11.1H42.61V17.63Zm0-13V14.82H42.61V4.63Z"/><path d="M89.11,6.66H80.65V21.9h19.66V6.66H91.88V5.45h11.28V2.71H91.88V.13H89.11V2.71H77.76V5.45H89.11Zm-5.66,4.09V9.23h14v1.52Zm0,4.15V13.28h14V14.9Zm0,4.41v-1.9h14v1.9Z"/><path d="M96.11,25.86h7.33V23.13H77.59v2.73h7a18.92,18.92,0,0,1-6.77,4l-.73.24,1.94,2.56.39-.16a23.81,23.81,0,0,0,7.93-5.32l.43-.43-1.11-.9h7.43L93,26.92l.4.4a22.74,22.74,0,0,0,8.2,5.29l.4.15,1.79-2.66-.71-.21A17.6,17.6,0,0,1,96.11,25.86Z"/><path d="M118.8,31.76h20.91V22.57H118.8ZM137,25.23v3.9H121.6v-3.9Z"/><path d="M135.75,17.39l.05-.15,3.44.09v-7H119.31v7H123c.18.47.34.94.48,1.42h-7v2.58H142V18.65h-6.7C135.46,18.21,135.56,17.93,135.75,17.39Zm.77-4.47,0,1.9H122.1v-1.9ZM133,17.34a14.57,14.57,0,0,1-.58,1.42h-6.1c-.21-.7-.34-1.12-.44-1.42Z"/><polygon points="130.67 2.24 130.67 0.13 127.87 0.13 127.87 2.24 116.48 2.24 116.48 4.9 127.88 4.9 127.88 6.66 117.88 6.66 117.88 9.23 140.67 9.23 140.67 6.66 130.67 6.66 130.67 4.9 142.1 4.9 142.1 2.24 130.67 2.24"/></svg>